# xmcd
#
# Track frame offsets: 
#        220
#        19135
#        32082
#        50305
#        69585
#        92027
#        111557
#        132355
#        153525
#
# Disc length: 2414 seconds
#
# Revision: 3
# Processed by: cddbd v1.5.2PL0 Copyright (c) Steve Scherf et al.
# Submitted via: ExactAudioCopy v0.99pb4
#
DISCID=79096c09
DTITLE=Black Uhuru - Iron Storm Dub
DYEAR=1992
DGENRE=Reggae
TTITLE0=Tip Of The Iceberg (Radio)
TTITLE1=Breakout
TTITLE2=Bloodshed
TTITLE3=Trouble
TTITLE4=Iron Storm
TTITLE5=Dance Hall Vibes
TTITLE6=Statement
TTITLE7=Colourblind Affair
TTITLE8=Tip Of The Iceberg (Club)
EXTD=
EXTT0=
EXTT1=
EXTT2=
EXTT3=
EXTT4=
EXTT5=
EXTT6=
EXTT7=
EXTT8=
PLAYORDER=
